# xmcd
#
# Track frame offsets: 
#        150
#        22568
#        43528
#        60560
#        65808
#        97839
#        109063
#        140209
#        155854
#        176214
#        198417
#
# Disc length: 2777 seconds
#
# Revision: 0
# Processed by: cddbd v1.5.1PL2 Copyright (c) Steve Scherf et al.
# Submitted via: ExactAudioCopy v0.95b4
#
DISCID=990ad70b
DTITLE=Alaska - 1993-11-06 - The New Ritz - Baltimore MD - Disc 2
DYEAR=1993
DGENRE=Progressive Rock
TTITLE0=Baba O'Riley
TTITLE1=Shock The Monkey
TTITLE2=Seasonal Changes
TTITLE3=Hope
TTITLE4=Kashmir
TTITLE5=Mississippi Queen
TTITLE6=Another Brick In The Wall Pt. 1
TTITLE7=Sold Me Out Again
TTITLE8=Whole Lotta Love
TTITLE9=Tom Sawyer
TTITLE10=Time (incomplete)
EXTD=
EXTT0=
EXTT1=
EXTT2=
EXTT3=
EXTT4=
EXTT5=
EXTT6=
EXTT7=
EXTT8=
EXTT9=
EXTT10=
PLAYORDER=
